<svg id="visual" viewBox="0 0 2000 2000" width="2000" height="2000" xmlns="http://www.w3.org/2000/svg" xmlns:xlink="http://www.w3.org/1999/xlink" version="1.1"><path d="M0 321L182 441L364 561L545 781L727 261L909 501L1091 341L1273 581L1455 301L1636 541L1818 641L2000 601L2000 0L1818 0L1636 0L1455 0L1273 0L1091 0L909 0L727 0L545 0L364 0L182 0L0 0Z" fill="#000000"></path><path d="M0 541L182 701L364 721L545 981L727 401L909 761L1091 581L1273 821L1455 461L1636 801L1818 841L2000 781L2000 599L1818 639L1636 539L1455 299L1273 579L1091 339L909 499L727 259L545 779L364 559L182 439L0 319Z" fill="#121212"></path><path d="M0 821L182 961L364 921L545 1241L727 541L909 921L1091 761L1273 1081L1455 701L1636 921L1818 1041L2000 961L2000 779L1818 839L1636 799L1455 459L1273 819L1091 579L909 759L727 399L545 979L364 719L182 699L0 539Z" fill="#1d1d1d"></path><path d="M0 1181L182 1241L364 1441L545 1401L727 1001L909 1221L1091 961L1273 1421L1455 1161L1636 1281L1818 1541L2000 1361L2000 959L1818 1039L1636 919L1455 699L1273 1079L1091 759L909 919L727 539L545 1239L364 919L182 959L0 819Z" fill="#292929"></path><path d="M0 1741L182 1701L364 1861L545 1701L727 1621L909 1641L1091 1641L1273 1661L1455 1821L1636 1641L1818 1841L2000 1881L2000 1359L1818 1539L1636 1279L1455 1159L1273 1419L1091 959L909 1219L727 999L545 1399L364 1439L182 1239L0 1179Z" fill="#343434"></path><path d="M0 2001L182 2001L364 2001L545 2001L727 2001L909 2001L1091 2001L1273 2001L1455 2001L1636 2001L1818 2001L2000 2001L2000 1879L1818 1839L1636 1639L1455 1819L1273 1659L1091 1639L909 1639L727 1619L545 1699L364 1859L182 1699L0 1739Z" fill="#404040"></path></svg>